<?xml version="1.0" encoding="UTF-8" standalone="no"?>
<svg
   xmlns:dc="http://purl.org/dc/elements/1.1/"
   xmlns:cc="http://creativecommons.org/ns#"
   xmlns:rdf="http://www.w3.org/1999/02/22-rdf-syntax-ns#"
   xmlns:svg="http://www.w3.org/2000/svg"
   xmlns="http://www.w3.org/2000/svg"
   xmlns:sodipodi="http://sodipodi.sourceforge.net/DTD/sodipodi-0.dtd"
   xmlns:inkscape="http://www.inkscape.org/namespaces/inkscape"
   width="100"
   height="291"
   viewBox="0 0 1000 291"
   fill="none"
   version="1.1"
   id="svg62"
   sodipodi:docname="linkace_logo.svg"
   inkscape:version="1.0.2 (e86c8708, 2021-01-15)">
  <metadata
     id="metadata68">
    <rdf:RDF>
      <cc:Work
         rdf:about="">
        <dc:format>image/svg+xml</dc:format>
        <dc:type
           rdf:resource="http://purl.org/dc/dcmitype/StillImage" />
      </cc:Work>
    </rdf:RDF>
  </metadata>
  <defs
     id="defs66" />
  <sodipodi:namedview
     pagecolor="#ffffff"
     bordercolor="#666666"
     borderopacity="1"
     objecttolerance="10"
     gridtolerance="10"
     guidetolerance="10"
     inkscape:pageopacity="0"
     inkscape:pageshadow="2"
     inkscape:window-width="1267"
     inkscape:window-height="757"
     id="namedview64"
     showgrid="false"
     inkscape:zoom="1.9037801"
     inkscape:cx="50"
     inkscape:cy="145.5"
     inkscape:window-x="0"
     inkscape:window-y="25"
     inkscape:window-maximized="0"
     inkscape:current-layer="svg62" />
  <!-- (C) Copyright 2020 LinkAce / Kevin Woblick -->
  <g
     aria-label="law"
     id="text72"
     style="font-style:normal;font-weight:normal;font-size:213.333px;line-height:1.25;font-family:sans-serif;letter-spacing:2.1px;fill:#000000;fill-opacity:1;stroke:none;stroke-width:10">
    <path
       d="M 128.55622,145.50003 V -3.8330643 l 21.3333,-4.0533268 V 145.50003 Z"
       style="font-style:normal;font-variant:normal;font-weight:500;font-stretch:normal;font-size:213.333px;font-family:'Red Hat Display VF';-inkscape-font-specification:'Red Hat Display VF Medium';fill:#2b0000;stroke-width:10"
       id="path926" />
    <path
       d="m 211.66942,147.42003 q -11.73332,0 -20.6933,-4.05333 -8.95999,-4.26666 -14.07998,-11.73331 -5.11999,-7.46666 -5.11999,-17.27998 0,-15.359972 11.73331,-24.106625 11.73332,-8.959985 32.21329,-8.959985 15.99997,0 29.65328,6.186657 V 75.953475 q 0,-11.733315 -6.82665,-17.493305 -6.61333,-5.759991 -19.62664,-5.759991 -7.46665,0 -15.57331,2.346663 -8.10665,2.13333 -18.1333,6.826655 l -7.89332,-15.999974 q 12.37331,-5.759991 23.03996,-8.319987 10.66665,-2.773329 21.54663,-2.773329 21.11997,0 32.63995,10.026651 11.73331,10.026651 11.73331,28.586621 v 72.106551 h -20.90663 v -9.38665 q -7.25332,5.75999 -15.57331,8.53332 -8.31998,2.77333 -18.1333,2.77333 z m -19.4133,-33.49328 q 0,7.89332 6.61332,12.79998 6.82665,4.90666 17.70664,4.90666 8.53332,0 15.57331,-2.56 7.25332,-2.56 13.22664,-7.89332 v -18.34664 q -6.18666,-3.626659 -13.01331,-5.11999 -6.61332,-1.706664 -14.93331,-1.706664 -11.73332,0 -18.55997,4.906664 -6.61332,4.69332 -6.61332,13.01331 z"
       style="font-style:normal;font-variant:normal;font-weight:500;font-stretch:normal;font-size:213.333px;font-family:'Red Hat Display VF';-inkscape-font-specification:'Red Hat Display VF Medium';fill:#2b0000;stroke-width:10"
       id="path928" />
    <path
       d="M 309.68926,145.50003 279.39598,36.913537 h 20.6933 l 21.11997,79.786543 24.74662,-79.786543 h 18.34664 l 24.74663,79.786543 21.11996,-79.786543 h 20.0533 L 399.71579,145.50003 h -20.47997 l -24.31996,-79.573206 -24.5333,79.573206 z"
       style="font-style:normal;font-variant:normal;font-weight:500;font-stretch:normal;font-size:213.333px;font-family:'Red Hat Display VF';-inkscape-font-specification:'Red Hat Display VF Medium';fill:#2b0000;stroke-width:10"
       id="path930" />
  </g>
  <g
     aria-label="resources"
     id="text76"
     style="font-style:normal;font-weight:normal;font-size:173.333px;line-height:1.25;font-family:sans-serif;fill:#000000;fill-opacity:1;stroke:none;stroke-width:10">
    <path
       d="m 123.82684,282.0704 v -83.37317 h 8.66664 v 15.77331 q 3.29333,-8.14665 9.35999,-12.65331 6.06665,-4.50666 14.03997,-4.50666 1.90666,0 3.81332,0.34667 1.90667,0.17333 3.64,0.52 v 8.14665 q -1.56,-0.52 -3.64,-0.69334 -2.07999,-0.34666 -3.98665,-0.34666 -8.14665,0 -14.21331,4.85332 -5.89332,4.67999 -9.01332,13.69331 v 58.23988 z"
       style="font-style:normal;font-variant:normal;font-weight:300;font-stretch:normal;font-size:173.333px;font-family:'Red Hat Text VF';-inkscape-font-specification:'Red Hat Text VF Light';fill:#1a1a1a;stroke-width:10"
       id="path907" />
    <path
       d="m 211.35458,283.80373 q -11.43998,0 -20.62663,-5.71998 -9.18664,-5.71999 -14.55997,-15.42664 -5.37332,-9.87998 -5.37332,-22.18662 0,-12.30665 5.19999,-22.01329 5.19999,-9.70665 13.86664,-15.42664 8.83998,-5.71999 19.41329,-5.71999 10.57332,0 19.06663,5.54666 8.49332,5.37332 13.51998,14.7333 5.02665,9.35998 5.02665,21.14663 v 3.29332 h -67.42653 q 0.34667,9.70665 4.67999,17.50664 4.33333,7.62665 11.43998,11.95997 7.27998,4.33333 16.11997,4.33333 6.93332,0 13.51997,-2.42667 6.58665,-2.59999 11.09331,-6.75998 l 5.19999,6.41332 q -6.93332,5.37332 -14.38664,8.14665 -7.27998,2.59999 -15.7733,2.59999 z m -31.5466,-48.8799 h 58.23988 q -0.69333,-8.49332 -4.67999,-15.07997 -3.98666,-6.75999 -10.22665,-10.57331 -6.23998,-3.98666 -13.86664,-3.98666 -7.45331,0 -13.6933,3.81332 -6.23999,3.81333 -10.39998,10.57332 -4.15999,6.58665 -5.37332,15.2533 z"
       style="font-style:normal;font-variant:normal;font-weight:300;font-stretch:normal;font-size:173.333px;font-family:'Red Hat Text VF';-inkscape-font-specification:'Red Hat Text VF Light';fill:#1a1a1a;stroke-width:10"
       id="path909" />
    <path
       d="m 294.67358,283.80373 q -9.53332,0 -17.67997,-3.46666 -8.14665,-3.46666 -14.55997,-9.35998 l 5.19999,-6.23999 q 7.10665,5.89333 13.17331,8.66665 6.23998,2.77333 13.6933,2.77333 10.22665,0 16.8133,-4.67999 6.75999,-4.67999 6.75999,-12.65331 0,-5.54665 -3.98666,-9.01331 -3.98666,-3.64 -12.99997,-5.37333 l -13.17331,-2.25332 q -12.13331,-2.08 -17.67997,-7.27999 -5.54665,-5.37332 -5.54665,-13.86664 0,-7.10665 3.81332,-12.47997 3.81333,-5.37333 10.39998,-8.31999 6.58666,-2.94666 14.90664,-2.94666 8.31999,0 15.59997,2.6 7.27999,2.42666 15.07997,7.97331 l -4.50666,6.75999 q -6.58665,-4.67999 -13.1733,-7.10665 -6.41332,-2.6 -12.99998,-2.6 -9.53331,0 -15.2533,3.98666 -5.54666,3.98666 -5.54666,11.61331 0,5.54666 3.46666,8.83998 3.64,3.29333 12.47998,4.85333 l 13.34664,2.42666 q 12.82664,2.25333 18.3733,7.79998 5.71998,5.54666 5.71998,14.21331 0,7.27999 -4.33332,12.99997 -4.15999,5.71999 -11.43998,9.01332 -7.10665,3.11999 -15.94663,3.11999 z"
       style="font-style:normal;font-variant:normal;font-weight:300;font-stretch:normal;font-size:173.333px;font-family:'Red Hat Text VF';-inkscape-font-specification:'Red Hat Text VF Light';fill:#1a1a1a;stroke-width:10"
       id="path911" />
    <path
       d="m 382.30155,283.80373 q -11.26665,0 -20.27996,-5.71998 -9.01332,-5.71999 -14.38664,-15.42664 -5.19999,-9.87998 -5.19999,-22.18662 0,-12.30665 5.19999,-22.01329 5.37332,-9.70665 14.38664,-15.42664 9.01331,-5.71999 20.27996,-5.71999 11.26664,0 20.27996,5.71999 9.01331,5.71999 14.2133,15.42664 5.37332,9.70664 5.37332,22.01329 0,12.30664 -5.37332,22.18662 -5.19999,9.70665 -14.2133,15.42664 -9.01332,5.71998 -20.27996,5.71998 z m 0,-7.97331 q 9.01331,0 15.94663,-4.50666 7.10665,-4.67999 11.09331,-12.65331 4.15999,-8.14665 4.15999,-18.19996 0,-10.05332 -4.15999,-18.02664 -3.98666,-7.97331 -11.09331,-12.47997 -6.93332,-4.67999 -15.94663,-4.67999 -8.83999,0 -15.94664,4.67999 -7.10665,4.50666 -11.26664,12.47997 -3.98666,7.97332 -3.98666,18.02664 0,10.05331 3.98666,18.19996 4.15999,7.97332 11.26664,12.65331 7.10665,4.50666 15.94664,4.50666 z"
       style="font-style:normal;font-variant:normal;font-weight:300;font-stretch:normal;font-size:173.333px;font-family:'Red Hat Text VF';-inkscape-font-specification:'Red Hat Text VF Light';fill:#1a1a1a;stroke-width:10"
       id="path913" />
    <path
       d="m 475.94739,283.45707 q -9.18664,0 -16.11996,-3.98666 -6.93332,-3.98666 -10.91998,-11.09331 -3.81333,-7.10666 -3.81333,-16.46664 v -53.21323 h 8.66665 v 50.78657 q 0,12.13331 6.58666,19.23996 6.58665,7.10666 18.02663,7.10666 7.62665,0 13.86664,-3.64 6.23998,-3.63999 10.22664,-10.91998 v -62.57321 h 8.66665 v 83.37317 h -8.66665 v -13.34664 q -4.67999,7.10666 -11.26664,10.91998 -6.58666,3.81333 -15.25331,3.81333 z"
       style="font-style:normal;font-variant:normal;font-weight:300;font-stretch:normal;font-size:173.333px;font-family:'Red Hat Text VF';-inkscape-font-specification:'Red Hat Text VF Light';fill:#1a1a1a;stroke-width:10"
       id="path915" />
    <path
       d="m 538.20101,282.0704 v -83.37317 h 8.66665 v 15.77331 q 3.29333,-8.14665 9.35998,-12.65331 6.06666,-4.50666 14.03997,-4.50666 1.90667,0 3.81333,0.34667 1.90666,0.17333 3.63999,0.52 v 8.14665 q -1.55999,-0.52 -3.63999,-0.69334 -2.08,-0.34666 -3.98666,-0.34666 -8.14665,0 -14.2133,4.85332 -5.89333,4.67999 -9.01332,13.69331 v 58.23988 z"
       style="font-style:normal;font-variant:normal;font-weight:300;font-stretch:normal;font-size:173.333px;font-family:'Red Hat Text VF';-inkscape-font-specification:'Red Hat Text VF Light';fill:#1a1a1a;stroke-width:10"
       id="path917" />
    <path
       d="m 625.9021,283.80373 q -11.43998,0 -20.62663,-5.71998 -9.18665,-5.89333 -14.7333,-15.59997 -5.37333,-9.87998 -5.37333,-22.01329 0,-12.13331 5.37333,-21.83996 5.54665,-9.87998 14.7333,-15.59997 9.18665,-5.71999 20.62663,-5.71999 8.66665,0 16.8133,3.29333 8.14665,3.11999 14.38664,9.18665 l -5.37333,6.41332 q -4.85332,-5.02666 -11.78664,-7.97332 -6.75999,-2.94666 -13.69331,-2.94666 -9.18665,0 -16.63996,4.67999 -7.27999,4.67999 -11.61331,12.65331 -4.16,7.97332 -4.16,17.8533 0,9.70664 4.16,17.85329 4.33332,7.97332 11.61331,12.82665 7.45331,4.67999 16.63996,4.67999 6.93332,0 13.69331,-2.94666 6.93332,-2.94667 11.78664,-7.97332 l 5.37333,6.41332 q -6.23999,5.89332 -14.38664,9.18665 -8.14665,3.29332 -16.8133,3.29332 z"
       style="font-style:normal;font-variant:normal;font-weight:300;font-stretch:normal;font-size:173.333px;font-family:'Red Hat Text VF';-inkscape-font-specification:'Red Hat Text VF Light';fill:#1a1a1a;stroke-width:10"
       id="path919" />
    <path
       d="m 714.98716,283.80373 q -12.47998,0 -22.53329,-5.89332 -10.05331,-6.06665 -15.94664,-16.11997 -5.89332,-10.22664 -5.89332,-23.05328 0,-12.82665 5.54666,-22.87996 5.54665,-10.05331 15.07997,-15.94663 9.70665,-6.06666 21.49329,-6.06666 12.13331,0 21.31996,5.89332 9.35998,5.89332 14.55997,15.94664 5.37332,10.05331 5.37332,23.05329 v 4.67999 h -64.1332 q 1.03999,7.10665 4.50665,12.65331 3.64,5.37332 9.18665,8.49331 5.71999,3.12 12.30664,3.12 6.06666,0 11.43998,-2.08 5.54666,-2.25333 9.18665,-6.06665 l 12.82664,11.61331 q -7.97332,6.58665 -16.2933,9.70664 -8.14665,2.94666 -18.02663,2.94666 z m -24.95995,-52.51989 h 45.41324 q -1.04,-6.23999 -4.33332,-11.09331 -3.12,-4.85333 -7.97332,-7.62666 -4.67999,-2.77332 -10.39998,-2.77332 -5.71999,0 -10.57331,2.77332 -4.67999,2.6 -7.79999,7.45332 -3.11999,4.85333 -4.33332,11.26665 z"
       style="font-style:normal;font-variant:normal;font-weight:500;font-stretch:normal;font-size:173.333px;font-family:'Red Hat Text VF';-inkscape-font-specification:'Red Hat Text VF Medium';fill:#1a1a1a"
       id="path921" />
    <path
       d="m 804.27531,283.80373 q -11.09331,0 -20.79996,-2.94666 -9.53331,-3.11999 -16.46663,-8.83998 l 9.18665,-12.99997 q 8.66665,5.37332 14.90663,7.62665 6.41332,2.25333 12.99998,2.25333 7.79998,0 12.65331,-3.29333 4.85332,-3.29333 4.85332,-8.49332 0,-3.98666 -2.94666,-6.23998 -2.77333,-2.42667 -9.18665,-3.64 l -15.2533,-2.59999 q -12.65331,-2.42666 -18.8933,-8.31999 -6.23999,-5.89332 -6.23999,-15.59997 0,-8.14665 4.15999,-14.03997 4.33333,-6.06665 11.78665,-9.35998 7.62665,-3.46666 17.67996,-3.46666 9.01332,0 17.50664,2.6 8.49331,2.59999 16.63996,7.79998 l -9.18665,12.99997 q -6.58665,-4.33332 -13.1733,-6.23998 -6.41332,-2.08 -12.99998,-2.08 -6.75998,0 -10.91998,2.77333 -3.98665,2.59999 -3.98665,7.27998 0,4.16 2.59999,6.41333 2.77333,2.07999 9.53331,3.11999 l 15.42664,2.94666 q 12.99998,2.25333 19.23996,8.31998 6.41332,5.89333 6.41332,15.77331 0,7.97331 -4.67999,14.38663 -4.67999,6.41333 -12.65331,10.22665 -7.97331,3.63999 -18.19996,3.63999 z"
       style="font-style:normal;font-variant:normal;font-weight:500;font-stretch:normal;font-size:173.333px;font-family:'Red Hat Text VF';-inkscape-font-specification:'Red Hat Text VF Medium';fill:#1a1a1a"
       id="path923" />
  </g>
  <rect
     id="rect82"
     width="31.516247"
     height="362.43683"
     x="47.274368"
     y="-38.344757"
     style="fill:#6c5353;stroke-width:10.5494"
     ry="3.3387096" />
</svg>
